# xmcd
#
# Track frame offsets: 
#        150
#        39370
#        56022
#        82445
#        97837
#        115846
#        137490
#        166883
#        187471
#        215721
#        244958
#        261462
#        283725
#
# Disc length: 4389 seconds
#
# Revision: 4
# Processed by: cddbd v1.5.2PL0 Copyright (c) Steve Scherf et al.
# Submitted via: ExactAudioCopyFreeDBPlugin 1.0
#
DISCID=cb11230d
DTITLE=Bright Eyes - Lifted or The Story Is In The Soil, Keep Your Ear
DTITLE=To The Ground
DYEAR=2002
DGENRE=Indie
TTITLE0=The Big Picture
TTITLE1=Method Acting
TTITLE2=False Advertising
TTITLE3=You Will. You? Will. You? Will. You? Will
TTITLE4=Lover I Don't Have To Love
TTITLE5=Bowl Of Oranges
TTITLE6=Don't Know When But A Day Is Gonna Come
TTITLE7=Nothing Gets Crossed Out
TTITLE8=Make War
TTITLE9=Waste Of Paint
TTITLE10=From A Balance Beam
TTITLE11=Laura Laurent
TTITLE12=Let's Not Shit Ourselves (To Love And To Be Loved)
EXTD=
EXTT0=
EXTT1=
EXTT2=
EXTT3=
EXTT4=
EXTT5=
EXTT6=
EXTT7=
EXTT8=
EXTT9=
EXTT10=
EXTT11=
EXTT12=
PLAYORDER=
